<svg width="833" height="160" viewBox="0 0 833 160" fill="none" xmlns="http://www.w3.org/2000/svg">
<path d="M284 59.2543H329.28V12.6943H360.64V133.334H329.28V83.5743H284V133.334H252.64V12.6943H284V59.2543Z" fill="#6876F2"/>
<path d="M410.561 91.8943C410.561 94.6677 411.041 97.2277 412.001 99.5743C413.068 101.814 414.401 103.788 416.001 105.494C417.708 107.201 419.681 108.534 421.921 109.494C424.268 110.454 426.721 110.934 429.281 110.934C431.841 110.934 434.241 110.454 436.481 109.494C438.828 108.534 440.801 107.201 442.401 105.494C444.108 103.788 445.441 101.814 446.401 99.5743C447.468 97.2277 448.001 94.721 448.001 92.0543C448.001 89.4943 447.468 87.0943 446.401 84.8543C445.441 82.5077 444.108 80.481 442.401 78.7743C440.801 77.0677 438.828 75.7343 436.481 74.7743C434.241 73.8143 431.841 73.3343 429.281 73.3343C426.721 73.3343 424.268 73.8143 421.921 74.7743C419.681 75.7343 417.708 77.0677 416.001 78.7743C414.401 80.481 413.068 82.4543 412.001 84.6943C411.041 86.9343 410.561 89.3343 410.561 91.8943ZM380.001 91.5743C380.001 85.4943 381.228 79.841 383.681 74.6143C386.134 69.281 389.548 64.6943 393.921 60.8543C398.294 56.9077 403.468 53.8143 409.441 51.5743C415.521 49.3343 422.134 48.2143 429.281 48.2143C436.321 48.2143 442.828 49.3343 448.801 51.5743C454.881 53.7077 460.108 56.7477 464.481 60.6943C468.961 64.5343 472.428 69.1743 474.881 74.6143C477.334 79.9477 478.561 85.8677 478.561 92.3743C478.561 98.881 477.281 104.854 474.721 110.294C472.268 115.628 468.854 120.268 464.481 124.214C460.108 128.054 454.828 131.041 448.641 133.174C442.561 135.308 435.948 136.374 428.801 136.374C421.761 136.374 415.254 135.308 409.281 133.174C403.308 131.041 398.134 128.001 393.761 124.054C389.494 120.108 386.134 115.414 383.681 109.974C381.228 104.428 380.001 98.2943 380.001 91.5743Z" fill="#6876F2"/>
<path d="M524.192 51.2543V97.4943C524.192 107.628 529.099 112.694 538.912 112.694C548.726 112.694 553.632 107.628 553.632 97.4943V51.2543H582.592V103.094C582.592 114.188 578.912 122.508 571.552 128.054C564.299 133.601 553.419 136.374 538.912 136.374C524.406 136.374 513.472 133.601 506.112 128.054C498.859 122.508 495.232 114.188 495.232 103.094V51.2543H524.192Z" fill="#6876F2"/>
<path d="M656.664 72.3743C651.33 69.601 646.104 68.2143 640.984 68.2143C638.317 68.2143 636.13 68.7477 634.424 69.8143C632.824 70.881 632.024 72.321 632.024 74.1343C632.024 75.0943 632.13 75.8943 632.344 76.5343C632.664 77.0677 633.25 77.601 634.104 78.1343C635.064 78.6677 636.397 79.1477 638.104 79.5743C639.917 80.001 642.264 80.5343 645.144 81.1743C653.144 82.7743 659.117 85.6543 663.064 89.8143C667.01 93.8677 668.984 99.0943 668.984 105.494C668.984 110.294 668.024 114.614 666.104 118.454C664.184 122.294 661.517 125.548 658.104 128.214C654.69 130.774 650.584 132.748 645.784 134.134C640.984 135.628 635.704 136.374 629.944 136.374C618.85 136.374 607.917 133.228 597.144 126.934L607.704 106.454C615.81 112.001 623.49 114.774 630.744 114.774C633.41 114.774 635.597 114.188 637.304 113.014C639.01 111.841 639.864 110.348 639.864 108.534C639.864 107.468 639.704 106.614 639.384 105.974C639.17 105.228 638.637 104.588 637.784 104.054C636.93 103.414 635.65 102.881 633.944 102.454C632.344 101.921 630.21 101.388 627.544 100.854C618.584 99.041 612.29 96.3743 608.664 92.8543C605.144 89.2277 603.384 84.2677 603.384 77.9743C603.384 73.3877 604.237 69.281 605.944 65.6543C607.65 61.921 610.104 58.7743 613.304 56.2143C616.504 53.6543 620.344 51.681 624.824 50.2943C629.41 48.9077 634.477 48.2143 640.024 48.2143C649.09 48.2143 657.89 49.9743 666.424 53.4943L656.664 72.3743Z" fill="#6876F2"/>
<path d="M718.177 75.4143V133.334H689.217V75.4143H679.617V51.2543H689.217V26.6143H718.177V51.2543H734.657V75.4143H718.177Z" fill="#6876F2"/>
<path d="M745.545 51.2543H774.505V61.6543C778.452 56.8543 782.452 53.6543 786.505 52.0543C790.558 50.3477 795.305 49.4943 800.745 49.4943C806.505 49.4943 811.412 50.4543 815.465 52.3743C819.625 54.1877 823.145 56.801 826.025 60.2143C828.372 62.9877 829.972 66.081 830.825 69.4943C831.678 72.9077 832.105 76.801 832.105 81.1743V133.334H803.145V91.8943C803.145 87.841 802.825 84.5877 802.185 82.1343C801.652 79.5743 800.638 77.5477 799.145 76.0543C797.865 74.7743 796.425 73.8677 794.825 73.3343C793.225 72.801 791.518 72.5343 789.705 72.5343C784.798 72.5343 781.012 74.0277 778.345 77.0143C775.785 79.8943 774.505 84.0543 774.505 89.4943V133.334H745.545V51.2543Z" fill="#6876F2"/>
<path d="M160 80L40 149.282L40 10.718L160 80Z" fill="#E5E7FA"/>
<path d="M186.667 80L66.6668 149.282L66.6668 10.718L186.667 80Z" fill="#A5AFFB"/>
<path d="M213.333 79.9998L93.3335 149.282L93.3335 10.7178L213.333 79.9998Z" fill="#6876F2"/>
</svg>
